<svg xmlns="http://www.w3.org/2000/svg" width="21.333" height="23.988" viewBox="0 0 21.333 23.988">
  <g id="Group_3" data-name="Group 3" transform="translate(1244.474 -14.372)">
    <path id="Path_6" data-name="Path 6" d="M-1223.17,496.9a11.852,11.852,0,0,0-.12-2.659,20.679,20.679,0,0,0-1.25-4.543,2.289,2.289,0,0,0-.813-1.043,8.9,8.9,0,0,0-1.967-1.039c-.657-.261-1.332-.48-1.987-.746a2.3,2.3,0,0,1-1.32-1.016c-.042.076-.076.147-.119.212-.328.506-.638,1.025-.991,1.514A3.651,3.651,0,0,1-1233,488.7a1.838,1.838,0,0,1-1.821,0,3.3,3.3,0,0,1-.625-.444,6.359,6.359,0,0,1-1.385-1.922c-.076-.149-.146-.3-.226-.469a1.957,1.957,0,0,1-.841.751,16.26,16.26,0,0,1-2.813,1.164,7.968,7.968,0,0,0-1.048.435,2.532,2.532,0,0,0-1.219,1.251c-.184.42-.378.837-.528,1.269a15.071,15.071,0,0,0-.683,2.991c-.11.843-.19,1.69-.272,2.536a2.486,2.486,0,0,0,.015.636Z" transform="translate(0 -458.543)" fill="#4b1817"/>
    <path id="Path_7" data-name="Path 7" d="M-1034.256,21.5c-.056-.29-.115-.564-.161-.839a6.478,6.478,0,0,1-.079-2.146,3.27,3.27,0,0,1,1.122-1.81,7.513,7.513,0,0,1,2.111-1.328,3.7,3.7,0,0,0,.445-.261c.072-.044.134-.1.205-.142.1-.061.164-.045.172.068l.108-.049-.167.228.273.115.166-.164.02.009-.1.178.137.062c.163-.522.755-.713,1.165-1.044l-.34.45.023.012.592-.375a1.843,1.843,0,0,0,.988,1.164l-.043-.131a.262.262,0,0,1,.048.027c.063.064.12.133.19.192a.375.375,0,0,0,.129.036l-.018-.077a.809.809,0,0,0,.476.158,4.578,4.578,0,0,1,.654.206,4.638,4.638,0,0,1,2.271,1.428,3.081,3.081,0,0,1,.629,2.071,5.7,5.7,0,0,1-.412,1.924c.253.036.34.088.331.292a7.277,7.277,0,0,1-.117.923,2.268,2.268,0,0,1-.153.49.746.746,0,0,1-.2.295.617.617,0,0,0-.2.361,6.134,6.134,0,0,1-3.442,3.97,3.952,3.952,0,0,1-1.587.379,3.815,3.815,0,0,1-2.223-.649,5.912,5.912,0,0,1-2.784-3.839.423.423,0,0,0-.085-.142,1.9,1.9,0,0,1-.309-.431,10.169,10.169,0,0,1-.268-1.072.779.779,0,0,1,.01-.313C-1034.64,21.5-1034.547,21.452-1034.256,21.5Zm4.666-6.232.167-.4C-1029.63,15.082-1029.674,15.19-1029.59,15.265Z" transform="translate(-204.77)" fill="#4b1817"/>
  </g>
</svg>
