<svg xmlns="http://www.w3.org/2000/svg" xmlns:xlink="http://www.w3.org/1999/xlink" width="115.337" height="115.336" viewBox="0 0 115.337 115.336">
  <defs>
    <linearGradient id="linear-gradient" x1="0.5" x2="0.5" y2="1" gradientUnits="objectBoundingBox">
      <stop offset="0" stop-color="#460b1e"/>
      <stop offset="1" stop-color="#0e0206"/>
    </linearGradient>
  </defs>
  <g id="checkmark" transform="translate(0 0.315)">
    <path id="Path_2488" data-name="Path 2488" d="M57.669,115.344A57.668,57.668,0,1,1,88.778,9.125a3.935,3.935,0,0,1-4.252,6.622,49.8,49.8,0,1,0,22.947,41.93c0-1.641-.079-3.267-.23-4.865a3.932,3.932,0,0,1,7.827-.76q.266,2.776.267,5.625a57.735,57.735,0,0,1-57.668,57.668Zm0,0" transform="translate(0 -0.323)" fill="url(#linear-gradient)"/>
    <path id="Icon_awesome-check" data-name="Icon awesome-check" d="M16.814,40.769.725,24.68a2.475,2.475,0,0,1,0-3.5l3.5-3.5a2.475,2.475,0,0,1,3.5,0L18.565,28.517,41.779,5.3a2.475,2.475,0,0,1,3.5,0l3.5,3.5a2.475,2.475,0,0,1,0,3.5L20.315,40.769A2.475,2.475,0,0,1,16.814,40.769Z" transform="translate(33.004 35.593)" fill="url(#linear-gradient)"/>
  </g>
</svg>
