<svg xmlns="http://www.w3.org/2000/svg" width="24.666" height="23.988" viewBox="0 0 24.666 23.988">
  <g id="Group_2" data-name="Group 2" transform="translate(-309.416 -371.602)">
    <path id="Path_3" data-name="Path 3" d="M324.933,390.374c-2.02,0-4.04,0-6.06,0a2.659,2.659,0,0,1-2.728-2.538,4.206,4.206,0,0,1,.125-1.011c.052-.287.141-.568.211-.852a2.635,2.635,0,0,0-.052-1.492q-1.7-5.1-3.4-10.2a.738.738,0,0,0-.8-.579c-.57,0-1.14,0-1.711,0a1.044,1.044,0,1,1-.024-2.086c1.01-.009,2.02-.007,3.03,0a1.045,1.045,0,0,1,1.074.791c.307.909.609,1.82.914,2.729a.787.787,0,0,0,.916.656q8.211,0,16.422,0a1.865,1.865,0,0,1,.484.041,1.029,1.029,0,0,1,.684,1.375c-.333,1.02-.674,2.037-1.014,3.055q-.844,2.533-1.691,5.066a1.091,1.091,0,0,1-1.226.883H319.262c-.54,0-.728.147-.858.669-.055.221-.114.441-.165.663a.567.567,0,0,0,.557.755c.081.006.163,0,.244,0q6.036,0,12.072,0a1.9,1.9,0,0,1,.484.04,1.023,1.023,0,0,1,.744,1.141,1.009,1.009,0,0,1-.98.888c-.839.013-1.678.006-2.517.006Z" fill="#4b1817"/>
    <path id="Path_4" data-name="Path 4" d="M407.326,675.214a2.082,2.082,0,1,1-.035,4.164,2.082,2.082,0,0,1,.035-4.164Z" transform="translate(-89.558 -283.788)" fill="#4b1817"/>
    <path id="Path_5" data-name="Path 5" d="M598.945,675.211a2.082,2.082,0,0,1,0,4.164,2.082,2.082,0,1,1,0-4.164Z" transform="translate(-268.671 -283.785)" fill="#4b1817"/>
  </g>
</svg>
